<?xml version="1.0" encoding="UTF-8" standalone="no"?>
<!DOCTYPE svg PUBLIC "-//W3C//DTD SVG 1.1//EN" "http://www.w3.org/Graphics/SVG/1.1/DTD/svg11.dtd">
<svg width="100%" height="100%" viewBox="0 0 300 50" version="1.1" xmlns="http://www.w3.org/2000/svg" xmlns:xlink="http://www.w3.org/1999/xlink" xml:space="preserve" xmlns:serif="http://www.serif.com/" style="fill-rule:evenodd;clip-rule:evenodd;stroke-linejoin:round;stroke-miterlimit:2;">
    <g>
        <g transform="matrix(0.993333,0,0,0.96,1,1)">
            <path d="M300,5C300,2.24 297.835,0 295.168,0L4.832,0C2.165,0 0,2.24 0,5L0,45C0,47.76 2.165,50 4.832,50L295.168,50C297.835,50 300,47.76 300,45L300,5Z" style="fill:white;"/>
        </g>
        <g>
            <g transform="matrix(1.04982,0,0,1.04982,-49.98,-16.0685)">
                <g transform="matrix(70.8333,0,0,70.8333,96.6855,47.8675)">
                    <path d="M0.231,-0.201C0.231,-0.188 0.228,-0.176 0.223,-0.166C0.217,-0.157 0.21,-0.148 0.2,-0.142C0.191,-0.135 0.18,-0.13 0.168,-0.126C0.156,-0.123 0.144,-0.119 0.131,-0.117C0.118,-0.115 0.105,-0.114 0.092,-0.114C0.079,-0.113 0.067,-0.113 0.056,-0.113C0.055,-0.108 0.053,-0.102 0.053,-0.096C0.052,-0.089 0.051,-0.083 0.051,-0.078C0.051,-0.06 0.056,-0.046 0.066,-0.037C0.076,-0.027 0.091,-0.023 0.108,-0.023C0.12,-0.023 0.131,-0.024 0.144,-0.028C0.157,-0.031 0.167,-0.036 0.177,-0.042L0.18,-0.011C0.168,-0.005 0.155,-0.001 0.141,0.002C0.127,0.004 0.113,0.006 0.1,0.006C0.087,0.006 0.076,0.004 0.065,0.001C0.055,-0.003 0.045,-0.008 0.038,-0.015C0.03,-0.021 0.024,-0.03 0.02,-0.04C0.015,-0.05 0.013,-0.061 0.013,-0.075C0.013,-0.099 0.018,-0.121 0.026,-0.143C0.035,-0.164 0.046,-0.184 0.06,-0.2C0.074,-0.217 0.09,-0.23 0.109,-0.24C0.127,-0.249 0.146,-0.254 0.165,-0.254C0.174,-0.254 0.183,-0.253 0.19,-0.251C0.198,-0.249 0.205,-0.246 0.211,-0.242C0.217,-0.237 0.222,-0.231 0.225,-0.225C0.229,-0.218 0.231,-0.21 0.231,-0.201ZM0.196,-0.198C0.196,-0.21 0.192,-0.217 0.185,-0.221C0.177,-0.225 0.168,-0.227 0.159,-0.227C0.147,-0.227 0.137,-0.224 0.127,-0.219C0.117,-0.213 0.108,-0.206 0.099,-0.198C0.091,-0.189 0.084,-0.18 0.078,-0.17C0.071,-0.159 0.066,-0.149 0.063,-0.14C0.076,-0.14 0.091,-0.14 0.107,-0.142C0.122,-0.143 0.136,-0.145 0.15,-0.149C0.163,-0.153 0.174,-0.159 0.183,-0.167C0.191,-0.174 0.196,-0.185 0.196,-0.198Z" style="fill-rule:nonzero;"/>
                </g>
                <g transform="matrix(70.8333,0,0,70.8333,112.304,47.8675)">
                    <path d="M0.377,-0.194C0.377,-0.19 0.376,-0.186 0.376,-0.182C0.375,-0.178 0.374,-0.173 0.374,-0.169L0.338,0L0.301,0L0.336,-0.164C0.337,-0.173 0.338,-0.181 0.338,-0.187C0.338,-0.212 0.326,-0.224 0.3,-0.224C0.289,-0.224 0.279,-0.222 0.27,-0.216C0.261,-0.211 0.253,-0.204 0.246,-0.196C0.239,-0.187 0.233,-0.179 0.229,-0.168C0.224,-0.158 0.221,-0.148 0.219,-0.138L0.19,0L0.154,0L0.188,-0.164C0.19,-0.173 0.191,-0.181 0.191,-0.187C0.191,-0.2 0.187,-0.21 0.18,-0.216C0.174,-0.221 0.164,-0.224 0.151,-0.224C0.14,-0.224 0.13,-0.222 0.121,-0.216C0.112,-0.211 0.104,-0.204 0.098,-0.196C0.091,-0.187 0.086,-0.179 0.081,-0.168C0.077,-0.158 0.074,-0.148 0.072,-0.138L0.043,0L0.006,0L0.046,-0.19C0.048,-0.2 0.05,-0.21 0.051,-0.219C0.053,-0.229 0.055,-0.239 0.056,-0.249L0.09,-0.249L0.083,-0.206C0.093,-0.221 0.106,-0.233 0.12,-0.241C0.134,-0.25 0.15,-0.254 0.169,-0.254C0.185,-0.254 0.198,-0.249 0.209,-0.24C0.22,-0.23 0.225,-0.218 0.226,-0.202C0.235,-0.217 0.247,-0.229 0.263,-0.239C0.278,-0.249 0.295,-0.254 0.313,-0.254C0.332,-0.254 0.347,-0.249 0.359,-0.238C0.371,-0.228 0.377,-0.213 0.377,-0.193Z" style="fill-rule:nonzero;"/>
                </g>
                <g transform="matrix(70.8333,0,0,70.8333,139.292,47.8675)">
                    <path d="M0.224,-0.11C0.218,-0.086 0.215,-0.066 0.212,-0.047C0.21,-0.028 0.209,-0.012 0.209,0L0.173,0C0.173,-0.007 0.174,-0.016 0.175,-0.028C0.177,-0.039 0.179,-0.052 0.182,-0.066C0.178,-0.059 0.173,-0.051 0.167,-0.043C0.161,-0.034 0.154,-0.027 0.147,-0.019C0.138,-0.012 0.129,-0.006 0.117,-0.002C0.107,0.003 0.094,0.005 0.08,0.005C0.069,0.005 0.06,0.003 0.051,-0C0.043,-0.004 0.036,-0.01 0.03,-0.017C0.025,-0.024 0.02,-0.032 0.018,-0.042C0.015,-0.051 0.013,-0.061 0.013,-0.073C0.013,-0.097 0.018,-0.12 0.028,-0.142C0.037,-0.164 0.05,-0.184 0.066,-0.2C0.082,-0.217 0.101,-0.23 0.123,-0.24C0.144,-0.25 0.167,-0.255 0.191,-0.255C0.203,-0.255 0.214,-0.254 0.226,-0.253C0.237,-0.251 0.247,-0.249 0.254,-0.246L0.224,-0.11ZM0.212,-0.221C0.207,-0.223 0.202,-0.224 0.197,-0.225C0.192,-0.225 0.187,-0.225 0.183,-0.225C0.164,-0.225 0.147,-0.221 0.131,-0.212C0.115,-0.202 0.101,-0.191 0.089,-0.177C0.078,-0.162 0.068,-0.147 0.062,-0.129C0.055,-0.111 0.051,-0.094 0.051,-0.076C0.051,-0.069 0.052,-0.063 0.054,-0.057C0.055,-0.05 0.057,-0.045 0.06,-0.04C0.064,-0.035 0.068,-0.031 0.073,-0.029C0.079,-0.026 0.085,-0.025 0.094,-0.025C0.104,-0.025 0.114,-0.028 0.125,-0.034C0.135,-0.04 0.145,-0.049 0.154,-0.06C0.163,-0.07 0.17,-0.083 0.178,-0.097C0.185,-0.112 0.19,-0.127 0.194,-0.144L0.212,-0.221Z" style="fill-rule:nonzero;"/>
                </g>
                <g transform="matrix(70.8333,0,0,70.8333,156.752,47.8675)">
                    <path d="M0.107,-0.305L0.069,-0.305L0.078,-0.348L0.115,-0.348L0.106,-0.305ZM0.042,0L0.006,0L0.058,-0.249L0.095,-0.249L0.043,0Z" style="fill-rule:nonzero;"/>
                </g>
                <g transform="matrix(70.8333,0,0,70.8333,162.915,47.8675)">
                    <path d="M0.043,0L0.006,0L0.083,-0.361L0.119,-0.361L0.042,0Z" style="fill-rule:nonzero;"/>
                </g>
                <g transform="matrix(70.8333,0,0,70.8333,171.695,47.8675)">
                    <path d="M0.164,-0.22L0.109,-0.22L0.078,-0.075C0.077,-0.07 0.076,-0.066 0.076,-0.061C0.075,-0.057 0.075,-0.052 0.075,-0.047C0.075,-0.038 0.077,-0.033 0.082,-0.03C0.086,-0.027 0.092,-0.025 0.099,-0.025C0.104,-0.025 0.109,-0.026 0.114,-0.027C0.119,-0.029 0.124,-0.03 0.129,-0.032L0.126,-0.002C0.113,0.003 0.1,0.005 0.084,0.005C0.071,0.005 0.06,0.001 0.051,-0.006C0.042,-0.014 0.038,-0.025 0.038,-0.04C0.038,-0.047 0.038,-0.053 0.039,-0.059C0.039,-0.065 0.04,-0.071 0.042,-0.078L0.073,-0.22L0.026,-0.22L0.032,-0.249L0.078,-0.249L0.09,-0.305L0.129,-0.318L0.115,-0.249L0.17,-0.249L0.164,-0.22Z" style="fill-rule:nonzero;"/>
                </g>
                <g transform="matrix(70.8333,0,0,70.8333,182.072,47.8675)">
                    <path d="M0.231,-0.201C0.231,-0.188 0.228,-0.176 0.223,-0.166C0.217,-0.157 0.21,-0.148 0.2,-0.142C0.191,-0.135 0.18,-0.13 0.168,-0.126C0.156,-0.123 0.144,-0.119 0.131,-0.117C0.118,-0.115 0.105,-0.114 0.092,-0.114C0.079,-0.113 0.067,-0.113 0.056,-0.113C0.055,-0.108 0.053,-0.102 0.053,-0.096C0.052,-0.089 0.051,-0.083 0.051,-0.078C0.051,-0.06 0.056,-0.046 0.066,-0.037C0.076,-0.027 0.091,-0.023 0.108,-0.023C0.12,-0.023 0.131,-0.024 0.144,-0.028C0.157,-0.031 0.167,-0.036 0.177,-0.042L0.18,-0.011C0.168,-0.005 0.155,-0.001 0.141,0.002C0.127,0.004 0.113,0.006 0.1,0.006C0.087,0.006 0.076,0.004 0.065,0.001C0.055,-0.003 0.045,-0.008 0.038,-0.015C0.03,-0.021 0.024,-0.03 0.02,-0.04C0.015,-0.05 0.013,-0.061 0.013,-0.075C0.013,-0.099 0.018,-0.121 0.026,-0.143C0.035,-0.164 0.046,-0.184 0.06,-0.2C0.074,-0.217 0.09,-0.23 0.109,-0.24C0.127,-0.249 0.146,-0.254 0.165,-0.254C0.174,-0.254 0.183,-0.253 0.19,-0.251C0.198,-0.249 0.205,-0.246 0.211,-0.242C0.217,-0.237 0.222,-0.231 0.225,-0.225C0.229,-0.218 0.231,-0.21 0.231,-0.201ZM0.196,-0.198C0.196,-0.21 0.192,-0.217 0.185,-0.221C0.177,-0.225 0.168,-0.227 0.159,-0.227C0.147,-0.227 0.137,-0.224 0.127,-0.219C0.117,-0.213 0.108,-0.206 0.099,-0.198C0.091,-0.189 0.084,-0.18 0.078,-0.17C0.071,-0.159 0.066,-0.149 0.063,-0.14C0.076,-0.14 0.091,-0.14 0.107,-0.142C0.122,-0.143 0.136,-0.145 0.15,-0.149C0.163,-0.153 0.174,-0.159 0.183,-0.167C0.191,-0.174 0.196,-0.185 0.196,-0.198Z" style="fill-rule:nonzero;"/>
                </g>
                <g transform="matrix(70.8333,0,0,70.8333,197.691,47.8675)">
                    <path d="M0.178,-0.213C0.169,-0.217 0.161,-0.22 0.153,-0.222C0.143,-0.225 0.135,-0.226 0.125,-0.226C0.118,-0.226 0.112,-0.225 0.105,-0.224C0.098,-0.222 0.092,-0.22 0.086,-0.217C0.08,-0.214 0.076,-0.21 0.072,-0.204C0.068,-0.198 0.066,-0.192 0.066,-0.185C0.066,-0.178 0.068,-0.171 0.073,-0.167C0.078,-0.162 0.084,-0.157 0.091,-0.152C0.098,-0.148 0.106,-0.142 0.114,-0.138C0.123,-0.133 0.131,-0.127 0.138,-0.121C0.145,-0.115 0.151,-0.108 0.156,-0.1C0.16,-0.092 0.163,-0.082 0.163,-0.071C0.163,-0.058 0.16,-0.046 0.153,-0.036C0.147,-0.027 0.139,-0.019 0.129,-0.012C0.119,-0.006 0.108,-0.001 0.096,0.001C0.084,0.004 0.072,0.006 0.06,0.006C0.049,0.006 0.037,0.005 0.027,0.003C0.016,0.002 0.005,-0.001 -0.005,-0.006L0.005,-0.038C0.014,-0.033 0.023,-0.029 0.032,-0.027C0.041,-0.024 0.051,-0.023 0.062,-0.023C0.069,-0.023 0.076,-0.024 0.084,-0.025C0.091,-0.027 0.098,-0.03 0.104,-0.033C0.11,-0.037 0.115,-0.042 0.119,-0.048C0.123,-0.053 0.125,-0.06 0.125,-0.069C0.125,-0.077 0.123,-0.084 0.118,-0.09C0.114,-0.096 0.108,-0.101 0.101,-0.106C0.093,-0.111 0.086,-0.116 0.077,-0.12C0.069,-0.125 0.061,-0.13 0.054,-0.136C0.047,-0.141 0.041,-0.148 0.036,-0.156C0.032,-0.163 0.029,-0.172 0.029,-0.183C0.029,-0.195 0.032,-0.206 0.038,-0.215C0.044,-0.224 0.052,-0.232 0.062,-0.237C0.071,-0.243 0.081,-0.247 0.093,-0.25C0.104,-0.252 0.115,-0.254 0.126,-0.254C0.136,-0.254 0.146,-0.253 0.157,-0.251C0.168,-0.249 0.178,-0.246 0.187,-0.242L0.177,-0.212Z" style="fill-rule:nonzero;"/>
                </g>
                <g transform="matrix(70.8333,0,0,70.8333,210.157,47.8675)">
                    <path d="M0.164,-0.22L0.109,-0.22L0.078,-0.075C0.077,-0.07 0.076,-0.066 0.076,-0.061C0.075,-0.057 0.075,-0.052 0.075,-0.047C0.075,-0.038 0.077,-0.033 0.082,-0.03C0.086,-0.027 0.092,-0.025 0.099,-0.025C0.104,-0.025 0.109,-0.026 0.114,-0.027C0.119,-0.029 0.124,-0.03 0.129,-0.032L0.126,-0.002C0.113,0.003 0.1,0.005 0.084,0.005C0.071,0.005 0.06,0.001 0.051,-0.006C0.042,-0.014 0.038,-0.025 0.038,-0.04C0.038,-0.047 0.038,-0.053 0.039,-0.059C0.039,-0.065 0.04,-0.071 0.042,-0.078L0.073,-0.22L0.026,-0.22L0.032,-0.249L0.078,-0.249L0.09,-0.305L0.129,-0.318L0.115,-0.249L0.17,-0.249L0.164,-0.22Z" style="fill-rule:nonzero;"/>
                </g>
                <g transform="matrix(70.8333,0,0,70.8333,220.535,47.8675)">
                    <path d="M0.107,-0.305L0.069,-0.305L0.078,-0.348L0.115,-0.348L0.106,-0.305ZM0.042,0L0.006,0L0.058,-0.249L0.095,-0.249L0.043,0Z" style="fill-rule:nonzero;"/>
                </g>
                <g transform="matrix(70.8333,0,0,70.8333,226.697,47.8675)">
                    <path d="M0.237,-0.19C0.237,-0.181 0.236,-0.171 0.233,-0.16L0.2,0L0.163,0L0.195,-0.151C0.196,-0.157 0.197,-0.162 0.198,-0.167C0.199,-0.172 0.199,-0.177 0.199,-0.182C0.199,-0.194 0.196,-0.203 0.189,-0.212C0.183,-0.221 0.171,-0.225 0.155,-0.225C0.143,-0.225 0.132,-0.222 0.122,-0.217C0.113,-0.213 0.105,-0.206 0.098,-0.198C0.092,-0.19 0.086,-0.181 0.082,-0.171C0.077,-0.16 0.074,-0.15 0.072,-0.139L0.042,0L0.006,0L0.045,-0.191C0.047,-0.2 0.049,-0.21 0.051,-0.22C0.053,-0.23 0.054,-0.239 0.055,-0.249L0.089,-0.249L0.082,-0.205C0.094,-0.221 0.106,-0.233 0.12,-0.241C0.133,-0.25 0.15,-0.254 0.17,-0.254C0.191,-0.254 0.207,-0.249 0.219,-0.237C0.231,-0.225 0.237,-0.21 0.237,-0.19Z" style="fill-rule:nonzero;"/>
                </g>
                <g transform="matrix(70.8333,0,0,70.8333,243.804,47.8675)">
                    <path d="M0.205,-0.019C0.201,0.002 0.195,0.022 0.188,0.038C0.182,0.054 0.172,0.068 0.162,0.079C0.151,0.091 0.137,0.099 0.121,0.105C0.105,0.111 0.084,0.114 0.061,0.114C0.049,0.114 0.036,0.113 0.024,0.11C0.011,0.108 -0.001,0.105 -0.012,0.101L-0.003,0.068C0.008,0.074 0.019,0.078 0.031,0.08C0.042,0.083 0.054,0.084 0.065,0.084C0.081,0.084 0.094,0.082 0.105,0.077C0.116,0.073 0.125,0.067 0.133,0.058C0.141,0.051 0.148,0.041 0.153,0.03C0.158,0.02 0.162,0.008 0.165,-0.006L0.175,-0.047C0.163,-0.031 0.15,-0.019 0.136,-0.011C0.123,-0.004 0.106,-0 0.084,-0C0.073,-0 0.063,-0.002 0.055,-0.006C0.046,-0.009 0.039,-0.015 0.033,-0.021C0.028,-0.028 0.023,-0.035 0.02,-0.044C0.018,-0.053 0.016,-0.062 0.016,-0.072C0.016,-0.097 0.021,-0.12 0.03,-0.142C0.04,-0.164 0.053,-0.184 0.069,-0.2C0.085,-0.217 0.104,-0.23 0.126,-0.24C0.147,-0.249 0.17,-0.254 0.195,-0.254C0.205,-0.254 0.216,-0.253 0.227,-0.252C0.237,-0.25 0.247,-0.248 0.257,-0.246L0.206,-0.019ZM0.215,-0.22C0.21,-0.222 0.205,-0.223 0.2,-0.224C0.196,-0.224 0.191,-0.225 0.186,-0.225C0.168,-0.225 0.15,-0.22 0.134,-0.212C0.118,-0.203 0.104,-0.192 0.092,-0.178C0.08,-0.163 0.071,-0.148 0.064,-0.13C0.057,-0.112 0.054,-0.094 0.054,-0.076C0.054,-0.062 0.057,-0.05 0.063,-0.042C0.069,-0.033 0.079,-0.029 0.095,-0.029C0.11,-0.029 0.123,-0.032 0.134,-0.04C0.146,-0.048 0.155,-0.057 0.163,-0.068C0.172,-0.079 0.179,-0.091 0.183,-0.104C0.189,-0.117 0.193,-0.129 0.195,-0.14L0.214,-0.22Z" style="fill-rule:nonzero;"/>
                </g>
                <g transform="matrix(70.8333,0,0,70.8333,261.406,47.8675)">
                    <path d="M0.056,0L0.013,0L0.023,-0.045L0.066,-0.045L0.056,0Z" style="fill-rule:nonzero;"/>
                </g>
                <g transform="matrix(70.8333,0,0,70.8333,269.233,47.8675)">
                    <path d="M0.224,-0.11C0.218,-0.086 0.215,-0.066 0.212,-0.047C0.21,-0.028 0.209,-0.012 0.209,0L0.173,0C0.173,-0.007 0.174,-0.016 0.175,-0.028C0.177,-0.039 0.179,-0.052 0.182,-0.066C0.178,-0.059 0.173,-0.051 0.167,-0.043C0.161,-0.034 0.154,-0.027 0.147,-0.019C0.138,-0.012 0.129,-0.006 0.117,-0.002C0.107,0.003 0.094,0.005 0.08,0.005C0.069,0.005 0.06,0.003 0.051,-0C0.043,-0.004 0.036,-0.01 0.03,-0.017C0.025,-0.024 0.02,-0.032 0.018,-0.042C0.015,-0.051 0.013,-0.061 0.013,-0.073C0.013,-0.097 0.018,-0.12 0.028,-0.142C0.037,-0.164 0.05,-0.184 0.066,-0.2C0.082,-0.217 0.101,-0.23 0.123,-0.24C0.144,-0.25 0.167,-0.255 0.191,-0.255C0.203,-0.255 0.214,-0.254 0.226,-0.253C0.237,-0.251 0.247,-0.249 0.254,-0.246L0.224,-0.11ZM0.212,-0.221C0.207,-0.223 0.202,-0.224 0.197,-0.225C0.192,-0.225 0.187,-0.225 0.183,-0.225C0.164,-0.225 0.147,-0.221 0.131,-0.212C0.115,-0.202 0.101,-0.191 0.089,-0.177C0.078,-0.162 0.068,-0.147 0.062,-0.129C0.055,-0.111 0.051,-0.094 0.051,-0.076C0.051,-0.069 0.052,-0.063 0.054,-0.057C0.055,-0.05 0.057,-0.045 0.06,-0.04C0.064,-0.035 0.068,-0.031 0.073,-0.029C0.079,-0.026 0.085,-0.025 0.094,-0.025C0.104,-0.025 0.114,-0.028 0.125,-0.034C0.135,-0.04 0.145,-0.049 0.154,-0.06C0.163,-0.07 0.17,-0.083 0.178,-0.097C0.185,-0.112 0.19,-0.127 0.194,-0.144L0.212,-0.221Z" style="fill-rule:nonzero;"/>
                </g>
                <g transform="matrix(70.8333,0,0,70.8333,286.693,47.8675)">
                    <path d="M0.248,-0.161C0.248,-0.142 0.245,-0.123 0.239,-0.103C0.233,-0.084 0.225,-0.066 0.214,-0.05C0.202,-0.034 0.189,-0.021 0.172,-0.01C0.156,0 0.136,0.005 0.115,0.005C0.096,0.005 0.081,0.001 0.071,-0.008C0.061,-0.018 0.054,-0.028 0.05,-0.041L0.019,0.108L-0.018,0.108L0.04,-0.166C0.043,-0.18 0.046,-0.194 0.049,-0.207C0.051,-0.221 0.053,-0.235 0.056,-0.249L0.091,-0.249L0.083,-0.204C0.092,-0.219 0.105,-0.232 0.121,-0.241C0.136,-0.25 0.153,-0.254 0.171,-0.254C0.186,-0.254 0.198,-0.252 0.209,-0.247C0.218,-0.242 0.226,-0.235 0.232,-0.226C0.237,-0.218 0.242,-0.208 0.244,-0.197C0.247,-0.185 0.248,-0.174 0.248,-0.161ZM0.21,-0.161C0.21,-0.17 0.209,-0.179 0.207,-0.186C0.206,-0.194 0.203,-0.201 0.199,-0.206C0.195,-0.212 0.19,-0.216 0.184,-0.22C0.177,-0.223 0.168,-0.225 0.158,-0.225C0.145,-0.225 0.134,-0.221 0.124,-0.215C0.114,-0.208 0.105,-0.2 0.098,-0.189C0.09,-0.179 0.084,-0.168 0.079,-0.156C0.074,-0.144 0.07,-0.133 0.068,-0.122C0.066,-0.112 0.065,-0.101 0.065,-0.089C0.065,-0.078 0.066,-0.067 0.07,-0.057C0.073,-0.048 0.078,-0.04 0.085,-0.034C0.092,-0.027 0.101,-0.024 0.114,-0.024C0.13,-0.024 0.144,-0.029 0.156,-0.038C0.168,-0.047 0.178,-0.058 0.186,-0.071C0.194,-0.085 0.2,-0.1 0.203,-0.116C0.207,-0.132 0.209,-0.147 0.21,-0.161Z" style="fill-rule:nonzero;"/>
                </g>
                <g transform="matrix(70.8333,0,0,70.8333,304.26,47.8675)">
                    <path d="M0.248,-0.161C0.248,-0.142 0.245,-0.123 0.239,-0.103C0.233,-0.084 0.225,-0.066 0.214,-0.05C0.202,-0.034 0.189,-0.021 0.172,-0.01C0.156,0 0.136,0.005 0.115,0.005C0.096,0.005 0.081,0.001 0.071,-0.008C0.061,-0.018 0.054,-0.028 0.05,-0.041L0.019,0.108L-0.018,0.108L0.04,-0.166C0.043,-0.18 0.046,-0.194 0.049,-0.207C0.051,-0.221 0.053,-0.235 0.056,-0.249L0.091,-0.249L0.083,-0.204C0.092,-0.219 0.105,-0.232 0.121,-0.241C0.136,-0.25 0.153,-0.254 0.171,-0.254C0.186,-0.254 0.198,-0.252 0.209,-0.247C0.218,-0.242 0.226,-0.235 0.232,-0.226C0.237,-0.218 0.242,-0.208 0.244,-0.197C0.247,-0.185 0.248,-0.174 0.248,-0.161ZM0.21,-0.161C0.21,-0.17 0.209,-0.179 0.207,-0.186C0.206,-0.194 0.203,-0.201 0.199,-0.206C0.195,-0.212 0.19,-0.216 0.184,-0.22C0.177,-0.223 0.168,-0.225 0.158,-0.225C0.145,-0.225 0.134,-0.221 0.124,-0.215C0.114,-0.208 0.105,-0.2 0.098,-0.189C0.09,-0.179 0.084,-0.168 0.079,-0.156C0.074,-0.144 0.07,-0.133 0.068,-0.122C0.066,-0.112 0.065,-0.101 0.065,-0.089C0.065,-0.078 0.066,-0.067 0.07,-0.057C0.073,-0.048 0.078,-0.04 0.085,-0.034C0.092,-0.027 0.101,-0.024 0.114,-0.024C0.13,-0.024 0.144,-0.029 0.156,-0.038C0.168,-0.047 0.178,-0.058 0.186,-0.071C0.194,-0.085 0.2,-0.1 0.203,-0.116C0.207,-0.132 0.209,-0.147 0.21,-0.161Z" style="fill-rule:nonzero;"/>
                </g>
            </g>
            <path d="M25.243,34.795C24.845,34.398 24.202,34.398 23.804,34.795L21.14,37.459C20.743,37.856 20.743,38.5 21.14,38.897C21.534,39.292 22.179,39.296 22.578,38.897L25.243,36.233C25.639,35.835 25.639,35.192 25.243,34.795ZM18.016,27.569C17.62,27.172 16.976,27.172 16.578,27.569L13.914,30.233C13.517,30.63 13.517,31.274 13.914,31.671C14.311,32.067 14.954,32.069 15.352,31.671L18.016,29.007C18.414,28.61 18.414,27.966 18.016,27.569ZM22.834,29.977C22.436,29.58 21.793,29.581 21.395,29.977L14.644,36.728C14.247,37.126 14.247,37.769 14.644,38.167C15.041,38.563 15.683,38.564 16.082,38.167L22.834,31.415C23.231,31.018 23.231,30.374 22.834,29.977ZM43.627,10.467L33.991,39.953C33.719,40.786 32.588,40.907 32.146,40.148L25.667,29.005C25.462,28.654 25.487,28.215 25.729,27.888L28.055,24.756L24.923,27.082C24.596,27.324 24.157,27.349 23.806,27.144L12.663,20.665C11.907,20.225 12.023,19.093 12.858,18.819L42.344,9.184C43.132,8.927 43.885,9.675 43.627,10.467Z" style="fill-rule:nonzero;"/>
        </g>
    </g>
</svg>
